<svg width="27" height="27" viewBox="0 0 27 27" fill="none" xmlns="http://www.w3.org/2000/svg">
<g clip-path="url(#clip0_309_0)">
<path d="M5.29375 0.00671387C2.38539 0.00671387 0.00506592 2.38698 0.00506592 5.29539V21.7071C0.00506592 24.6155 2.38533 26.9949 5.29375 26.9949H21.7055C24.6138 26.9949 26.9933 24.6155 26.9933 21.7071V5.29539C26.9933 2.38703 24.6138 0.00671387 21.7055 0.00671387H5.29375ZM6.62393 4.46031C8.01842 4.46031 8.87737 5.37577 8.90389 6.57913C8.90389 7.75593 8.01837 8.69712 6.59695 8.69712H6.57079C5.20284 8.69712 4.31867 7.75598 4.31867 6.57913C4.31867 5.3758 5.22959 4.46031 6.6239 4.46031H6.62393ZM18.6411 10.0847C21.323 10.0847 23.3334 11.8376 23.3334 15.6045V22.6366H19.2577V16.0759C19.2577 14.4273 18.6678 13.3025 17.1928 13.3025C16.0668 13.3025 15.3957 14.0606 15.101 14.793C14.9933 15.055 14.9669 15.4209 14.9669 15.7875V22.6366H10.8911C10.8911 22.6366 10.9446 11.523 10.8911 10.3723H14.9677V12.109C15.5093 11.2734 16.4781 10.0847 18.6411 10.0847V10.0847ZM4.55908 10.3732H8.63481V22.6366H4.55908V10.3732Z" fill="white"/>
</g>
<defs>
<clipPath id="clip0_309_0">
<rect width="27" height="27" fill="white"/>
</clipPath>
</defs>
</svg>
